<?xml version="1.0" encoding="UTF-8"?>
<svg xmlns="http://www.w3.org/2000/svg" xmlns:xlink="http://www.w3.org/1999/xlink" width="60px" height="60px" viewBox="0 0 60 60" version="1.1">
<g id="surface1">
<path style=" stroke:none;fill-rule:nonzero;fill:rgb(0%,0%,0%);fill-opacity:1;" d="M 23.4375 52.570312 C 23.390625 52.921875 23.132812 53.015625 22.851562 53.0625 C 21.632812 53.273438 20.648438 53.976562 19.59375 54.585938 C 18.9375 54.960938 18.210938 55.242188 17.507812 55.570312 C 17.414062 55.617188 17.25 55.640625 17.203125 55.59375 C 16.851562 55.125 16.453125 55.5 16.148438 55.617188 C 15.539062 55.851562 15 56.25 14.4375 56.554688 C 14.132812 56.71875 13.828125 56.90625 13.5 57.046875 C 13.148438 57.1875 12.773438 57.234375 12.492188 57.5625 C 12.398438 57.65625 12.1875 57.679688 12.046875 57.679688 C 11.929688 57.679688 11.835938 57.5625 11.71875 57.515625 C 11.765625 57.421875 11.8125 57.328125 11.90625 57.28125 C 12.210938 57.09375 12.539062 56.929688 12.84375 56.765625 C 13.3125 56.507812 13.78125 56.226562 14.273438 55.96875 C 14.34375 55.921875 14.414062 55.875 14.484375 55.851562 C 15.632812 55.570312 16.59375 54.914062 17.601562 54.375 C 17.976562 54.164062 18.304688 53.882812 18.679688 53.625 C 18.375 53.226562 18.070312 53.34375 17.835938 53.484375 C 16.898438 53.953125 15.984375 54.445312 15.070312 54.9375 C 14.929688 55.007812 14.8125 55.148438 14.648438 55.195312 C 14.507812 55.242188 14.273438 55.21875 14.226562 55.148438 C 14.15625 55.03125 14.15625 54.796875 14.226562 54.703125 C 14.671875 54.117188 15.070312 53.484375 15.914062 53.390625 C 16.171875 53.367188 16.453125 53.296875 16.242188 52.921875 C 16.148438 52.757812 16.101562 52.617188 16.265625 52.5 C 16.453125 52.359375 16.664062 52.171875 16.921875 52.335938 C 17.179688 52.523438 17.484375 52.59375 17.765625 52.453125 C 18.046875 52.335938 18.328125 52.195312 18.117188 51.796875 C 17.976562 51.539062 18.164062 51.398438 18.375 51.28125 C 18.820312 51.070312 19.265625 50.835938 19.710938 50.648438 C 19.851562 50.578125 20.109375 50.507812 20.179688 50.578125 C 20.625 51.070312 20.90625 50.625 21.210938 50.414062 C 21.328125 50.320312 21.492188 50.273438 21.632812 50.226562 C 21.914062 50.695312 21.328125 50.695312 21.28125 51.023438 C 21.398438 51.046875 21.515625 51.117188 21.609375 51.09375 C 22.242188 50.835938 22.851562 50.53125 23.460938 50.25 C 23.507812 50.226562 23.507812 50.085938 23.554688 49.992188 C 23.484375 49.96875 23.390625 49.921875 23.34375 49.945312 C 23.132812 50.039062 22.921875 50.15625 22.617188 50.179688 C 22.78125 49.992188 22.945312 49.78125 23.15625 49.640625 C 23.882812 49.195312 24.632812 48.796875 25.382812 48.398438 C 25.523438 48.328125 25.78125 48.257812 25.898438 48.328125 C 26.203125 48.515625 26.484375 48.445312 26.765625 48.328125 C 27.328125 48.09375 27.867188 47.859375 28.40625 47.601562 C 28.5 47.554688 28.523438 47.4375 28.617188 47.320312 C 28.101562 46.96875 27.703125 47.367188 27.1875 47.484375 C 27.28125 47.273438 27.28125 47.085938 27.375 47.039062 C 27.726562 46.828125 28.078125 46.617188 28.453125 46.453125 C 28.757812 46.3125 29.085938 46.3125 29.320312 45.914062 C 29.132812 45.867188 28.992188 45.796875 28.875 45.820312 C 27.84375 45.890625 26.859375 46.03125 26.15625 46.921875 C 25.78125 47.367188 25.195312 47.390625 24.65625 47.4375 C 24.351562 47.460938 24.257812 47.25 24.328125 46.992188 C 24.398438 46.757812 24.46875 46.476562 24.65625 46.359375 C 25.195312 46.03125 25.6875 45.515625 26.4375 45.726562 C 26.578125 45.773438 26.765625 45.75 26.90625 45.703125 C 27.65625 45.445312 28.40625 45.164062 29.132812 44.859375 C 29.390625 44.765625 29.765625 44.648438 29.367188 44.25 C 29.34375 44.226562 29.484375 43.96875 29.601562 43.898438 C 30.492188 43.289062 31.382812 42.703125 32.273438 42.117188 C 33.960938 40.992188 35.789062 40.125 37.617188 39.210938 C 38.742188 38.648438 39.679688 37.851562 40.640625 37.078125 C 40.851562 36.914062 41.039062 36.679688 41.203125 36.46875 C 41.601562 35.929688 41.53125 35.507812 40.921875 35.203125 C 40.546875 35.015625 40.101562 34.875 39.679688 34.804688 C 38.179688 34.570312 36.679688 34.40625 35.203125 34.148438 C 34.007812 33.9375 33.023438 33.28125 32.484375 32.203125 C 32.179688 31.59375 32.0625 30.796875 32.179688 30.140625 C 32.507812 28.335938 33.257812 26.695312 34.570312 25.359375 C 35.882812 24 37.40625 23.039062 39.1875 22.453125 C 40.265625 22.101562 41.414062 22.21875 42.515625 22.476562 C 43.21875 22.640625 43.898438 22.640625 44.601562 22.335938 C 45.28125 22.03125 45.960938 21.75 46.546875 21.28125 C 46.59375 21.257812 46.640625 21.210938 46.6875 21.1875 C 46.921875 21.117188 47.109375 21.585938 47.367188 21.1875 C 47.507812 21 47.695312 20.835938 47.859375 20.671875 C 47.859375 20.671875 47.90625 20.671875 48 20.671875 C 48 20.835938 48.023438 21.023438 48.023438 21.1875 C 48.023438 21.539062 47.859375 21.867188 48.140625 22.195312 C 48.234375 22.3125 48.140625 22.570312 48.140625 22.757812 C 48.140625 23.484375 48.1875 24.234375 48.164062 24.960938 C 48.117188 25.757812 48 26.554688 47.53125 27.234375 C 46.96875 28.054688 46.289062 28.757812 45.46875 29.320312 C 45.234375 29.460938 45.046875 29.484375 44.789062 29.414062 C 44.179688 29.25 43.640625 28.945312 43.195312 28.453125 C 42.515625 27.703125 41.695312 27.09375 40.78125 26.601562 C 40.101562 26.25 39.492188 26.296875 38.859375 26.742188 C 38.085938 27.304688 37.3125 27.867188 36.820312 28.734375 C 36.328125 29.625 36.210938 30.5625 36.609375 31.476562 C 36.820312 31.945312 37.3125 32.179688 37.804688 32.273438 C 38.835938 32.460938 39.867188 32.625 40.898438 32.742188 C 41.789062 32.835938 42.726562 32.789062 43.59375 32.976562 C 44.8125 33.234375 45.9375 33.726562 46.546875 34.945312 C 46.78125 35.4375 47.085938 35.90625 47.273438 36.421875 C 47.484375 37.054688 47.507812 37.6875 47.15625 38.320312 C 46.617188 39.257812 45.9375 40.054688 45.070312 40.734375 C 43.664062 41.8125 42.117188 42.609375 40.59375 43.5 C 40.03125 43.828125 39.585938 44.226562 39.210938 44.742188 C 38.976562 45.070312 38.671875 45.375 38.320312 45.585938 C 36.609375 46.59375 34.898438 47.53125 33.164062 48.515625 C 32.601562 48.820312 31.992188 48.796875 31.40625 48.820312 C 31.3125 48.820312 31.195312 48.726562 31.171875 48.65625 C 31.148438 48.585938 31.242188 48.445312 31.335938 48.398438 C 31.804688 48.164062 32.25 47.929688 32.742188 47.71875 C 33 47.601562 33.257812 47.507812 33.28125 47.0625 C 32.976562 47.132812 32.71875 47.179688 32.484375 47.273438 C 31.5 47.671875 30.515625 48.09375 29.507812 48.46875 C 28.851562 48.703125 28.148438 48.84375 27.539062 49.265625 C 27.421875 49.335938 27.210938 49.3125 27.070312 49.289062 C 26.625 49.171875 26.273438 49.289062 25.898438 49.5 C 25.21875 49.851562 24.539062 50.203125 23.835938 50.53125 C 22.757812 51.046875 21.632812 51.515625 20.625 52.195312 C 20.34375 52.382812 20.109375 52.59375 19.851562 52.804688 C 19.804688 52.828125 19.804688 52.96875 19.828125 53.015625 C 19.851562 53.0625 19.96875 53.15625 20.015625 53.132812 C 20.390625 53.015625 20.765625 52.921875 21.09375 52.78125 C 21.585938 52.546875 22.054688 52.242188 22.546875 52.007812 C 23.015625 51.773438 23.484375 51.46875 24.09375 51.65625 C 24.328125 51.726562 24.632812 51.46875 24.9375 51.398438 C 25.054688 51.375 25.21875 51.445312 25.359375 51.492188 C 25.3125 51.632812 25.289062 51.84375 25.195312 51.890625 C 24.820312 52.101562 24.421875 52.242188 24 52.40625 C 23.835938 52.476562 23.625 52.523438 23.4375 52.570312 C 23.414062 52.546875 23.414062 52.476562 23.390625 52.429688 C 23.367188 52.359375 23.320312 52.3125 23.273438 52.265625 C 23.273438 52.265625 23.203125 52.3125 23.15625 52.335938 C 23.203125 52.382812 23.226562 52.453125 23.296875 52.5 C 23.320312 52.546875 23.390625 52.546875 23.4375 52.570312 Z M 23.4375 52.570312 "/>
<path style=" stroke:none;fill-rule:nonzero;fill:rgb(0%,0%,0%);fill-opacity:1;" d="M 35.601562 13.96875 C 36.726562 12.445312 37.570312 10.828125 38.789062 9.492188 C 38.859375 9.539062 38.929688 9.585938 38.976562 9.609375 C 38.554688 10.429688 38.15625 11.273438 37.734375 12.09375 C 37.78125 12.117188 37.851562 12.164062 37.898438 12.1875 C 38.085938 11.929688 38.296875 11.671875 38.460938 11.390625 C 38.835938 10.757812 39.140625 10.078125 39.539062 9.445312 C 40.59375 7.757812 41.578125 6.023438 43.054688 4.617188 C 43.148438 4.523438 43.242188 4.40625 43.359375 4.335938 C 43.710938 4.078125 43.992188 4.078125 44.367188 4.359375 C 44.414062 4.40625 44.460938 4.546875 44.4375 4.617188 C 44.34375 4.828125 44.203125 5.0625 44.0625 5.25 C 43.664062 5.835938 43.289062 6.421875 42.867188 7.007812 C 42.421875 7.617188 42.234375 8.273438 42.234375 9 C 42.234375 9.445312 42.046875 9.773438 41.554688 9.9375 C 41.53125 9.75 41.53125 9.609375 41.507812 9.375 C 40.898438 10.265625 40.3125 11.085938 39.75 11.929688 C 39.726562 11.953125 39.65625 11.929688 39.515625 11.929688 C 40.054688 10.664062 41.0625 9.65625 41.320312 8.273438 C 40.617188 8.601562 40.335938 9.28125 39.9375 9.820312 C 39.539062 10.359375 39.257812 10.992188 38.953125 11.601562 C 38.625 12.234375 38.296875 12.867188 38.015625 13.523438 C 37.757812 14.132812 37.265625 14.671875 37.40625 15.492188 C 38.132812 15.210938 38.226562 14.34375 38.929688 14.039062 C 38.929688 14.179688 38.953125 14.273438 38.929688 14.34375 C 38.179688 16.007812 37.5 17.71875 36.398438 19.21875 C 35.789062 20.039062 35.320312 21 34.804688 21.890625 C 34.570312 22.289062 34.289062 22.664062 34.03125 23.039062 C 33.9375 23.179688 33.84375 23.296875 33.773438 23.460938 C 33.539062 24.023438 33.375 24.609375 33.070312 25.125 C 32.765625 25.640625 32.8125 26.226562 32.648438 26.765625 C 32.273438 28.054688 31.875 29.320312 31.476562 30.609375 C 30.9375 32.414062 30.585938 34.289062 30.28125 36.140625 C 30.140625 37.054688 30.09375 37.992188 30.09375 38.929688 C 30.09375 39.890625 29.0625 40.59375 28.195312 40.21875 C 28.101562 40.171875 28.007812 40.101562 27.960938 40.007812 C 27.515625 39.1875 26.835938 38.507812 26.15625 37.898438 C 25.570312 37.359375 25.5 36.773438 25.6875 36.117188 C 25.828125 35.601562 25.78125 35.15625 25.664062 34.6875 C 25.476562 33.9375 25.265625 33.210938 25.195312 32.4375 C 25.148438 31.945312 24.820312 31.617188 24.65625 31.195312 C 24.351562 30.46875 24.070312 29.71875 23.8125 28.992188 C 23.367188 27.75 22.945312 26.507812 22.5 25.289062 C 22.289062 24.679688 21.984375 24.09375 21.820312 23.460938 C 21.632812 22.6875 21.164062 22.125 20.578125 21.65625 C 20.0625 21.257812 19.828125 20.742188 19.898438 20.15625 C 19.96875 19.476562 19.875 18.75 20.296875 18.117188 C 20.578125 17.71875 20.695312 17.226562 20.90625 16.757812 C 21.023438 16.453125 21.210938 16.265625 21.515625 16.476562 C 21.773438 16.664062 21.984375 16.570312 22.195312 16.429688 C 22.734375 16.03125 23.296875 16.3125 23.859375 16.359375 C 24.46875 16.96875 25.21875 17.414062 25.359375 18.398438 C 25.570312 19.921875 25.875 21.421875 26.226562 22.898438 C 26.53125 24.210938 26.929688 25.5 27.28125 26.789062 C 27.328125 27 27.351562 27.234375 27.398438 27.445312 C 27.492188 27.773438 27.5625 28.125 27.679688 28.453125 C 27.726562 28.59375 27.796875 28.710938 27.84375 28.828125 C 27.9375 29.0625 27.820312 29.460938 28.195312 29.460938 C 28.335938 29.460938 28.476562 29.039062 28.570312 28.804688 C 29.15625 27.09375 29.695312 25.382812 30.28125 23.671875 C 30.773438 22.242188 31.3125 20.835938 31.78125 19.40625 C 32.0625 18.585938 32.132812 17.695312 32.554688 16.898438 C 32.929688 16.195312 33.304688 15.515625 33.726562 14.835938 C 33.84375 14.625 34.054688 14.34375 34.382812 14.648438 C 34.40625 14.671875 34.617188 14.578125 34.6875 14.484375 C 34.851562 14.273438 34.992188 14.039062 35.15625 13.804688 C 35.25 13.429688 35.296875 13.453125 35.601562 13.96875 Z M 43.171875 5.578125 C 42.890625 5.648438 42.703125 5.625 42.65625 5.71875 C 42.28125 6.1875 41.90625 6.65625 41.554688 7.125 C 41.53125 7.171875 41.554688 7.3125 41.601562 7.335938 C 41.695312 7.359375 41.835938 7.382812 41.882812 7.335938 C 42.375 6.867188 42.84375 6.375 43.171875 5.578125 Z M 43.171875 5.578125 "/>
<path style=" stroke:none;fill-rule:nonzero;fill:rgb(0%,0%,0%);fill-opacity:1;" d="M 41.484375 3.1875 C 41.179688 3.609375 41.15625 4.335938 40.476562 4.640625 C 40.359375 4.6875 40.148438 4.664062 40.03125 4.617188 C 39.960938 4.59375 39.960938 4.382812 39.984375 4.265625 C 40.078125 3.84375 40.21875 3.421875 40.335938 3 C 40.359375 2.929688 40.382812 2.835938 40.40625 2.765625 C 40.59375 2.414062 40.828125 2.296875 41.132812 2.390625 C 41.414062 2.460938 41.507812 2.648438 41.484375 3.1875 Z M 41.484375 3.1875 "/>
</g>
</svg>
